<?xml version="1.0" encoding="utf-8"?>
<!-- Generator: Adobe Illustrator 24.0.1, SVG Export Plug-In . SVG Version: 6.00 Build 0)  -->
<svg version="1.1" id="Layer_2" xmlns="http://www.w3.org/2000/svg" xmlns:xlink="http://www.w3.org/1999/xlink" x="0px" y="0px"
	viewBox="0 0 429.4 438.7" style="enable-background:new 0 0 429.4 438.7;" xml:space="preserve">
<style type="text/css">
	.st0{fill:none;}
</style>
<path class="st0" d="M383.8,248.3c0,0-35.7-8-71.1,16.5c0,0-39.5,32-41.5,9.5c0,0,4.8-12.3,13.6-21.8c0,0,15-21.8-10.9-13.6
	l-68.8,20.8c0,0-2,4.4,6.8,4.4c0,0,35.4,0.7,48.3,11.6s21.1,8.2,21.1,0l39.5-125.3c0,0-1.4-7.5,9.5-7.5H422c0,0,13.3-1.4-1,16.3
	c0,0-21.8,32.7-23.8,40.9L386.2,245c0,0-2.7,7.5-16.3,7.5c0,0-39.5,8.2-47.7,17c0,0-32,13.6-45.6,21.8c0,0-2.7,6.8-32.7-8.2
	c0,0-22.5-10.9-72.2-10.2c0,0-15.7-2,3.4-8.8c0,0,69.4-29.3,72.9-30s-77.5,32.7-82.3,30.6L75,274.2c0,0,19.7-67.4,19.1-81.7
	l5.4-54.5c0,0,3.4-7.5,5.4,4.8c0,0,42.9,128,64.7,117.8c0,0,10.2,6.8,51.1-85.1c0,0,24.5-44.9,29.3-42.2s0,12.9-15,32.7
	c0,0-4.8,8.9,1.4,30.6s20.4,40.9,20.4,40.9s12.3,6.1,19.1-15c0,0,3.4-17.7-4.8-55.8c0,0,2-64-4.8-62c0,0-4.1-2.7-21.1-7.5
	c0,0-16.3-6.1-18.4,15c0,0,19.1-10.2,29.3-0.7s4.8,15.7,4.8,15.7c-8.4-12.6-22.3-20.4-37.5-21.1c0,0-14.3,18.3-9.5,40.8
	c0,0-56.5,64.7-57.9,73.6s26.5-29.3,26.5-29.3s-3.4-7.5-11.6-17.7c0,0-6.1-1.4-8.2-34.7S137,96.6,130.2,100s-38.8,10.9-22.5,87.8
	c0,0,33.4-14.3,68.1-16.3c0,0,6.8,0-2-21.8c0,0-11.6-51.1-18.4-50.4c-8.4-4.4-17.7-6.8-27.2-6.8c0,0,41.5-20.4,43.6-16.3
	c0,0,2.7-2.7,11.6,26.5c0,0,15,40.9,21.8,22.5c0,0,13.6-16.3,4.8-21.8l-6.8-8.9l12.9,9.5l2,0.7c0,0,2-14.3,32-10.2V68
	c0,0,8.2-6.1,10.9-5.5s-6.8,25.2-6.8,25.2s25.2-29.3,11.6-53.7c0,0-13.6,1.4-18.4-3.4s-9.5-7.5-15,4.1c0,0-1.4,7.5-6.1,8.9
	s-6.4-1.6-15,2.7c-5.5,2.7-8.9,14.3-8.9,14.3s3.4-19.7-1.4-25.2s-10.1-11.1-13,4.9c0,0,1.7,21.5,2.4,23c0,0-13.1,9.7-13.5,9.4
	s14.8-9.5,14.8-11.1s1.5-5.8-1-9.4s-4.3-15.7,0.7-16.5s5.4,13.6-1.2,17.7c0,0-3.2-1-3.2-18.6s17.2-33.7,28.9-32.1s53.3,5.2,55.3,20
	s3,19.4,3,19.4S260,20,232.9,19.5c-2.8,2.9-5.1,6.4-6.6,10.2c-2,5.6-5.1,4.6-5.1,4.6s-5.1-5.1-8.2-2S192,55.8,193.6,66.5
	s1.5,27.6-1,27.6s-18.9-24-30.6-20.9s-35.6,21.4-47,54.1c0,0-6.1,14.3,0,26s17.4,31.1,12.8,37.8s-13.8,8.2-18.4,10.2
	S95,209.4,93,221.7s-7.1,40.9-6.1,49s1,16.8-4.1,15.3s-51.9-1.5-71.4,21s3.2,57.2,35.9,58.2s34.8,24-1,30.6
	c-39,7.2-37.9,42.9-37.9,42.9"/>
</svg>
