<?xml version="1.0" encoding="utf-8"?>
<!-- Generator: Adobe Illustrator 24.0.1, SVG Export Plug-In . SVG Version: 6.00 Build 0)  -->
<svg version="1.1" id="Layer_2" xmlns="http://www.w3.org/2000/svg" xmlns:xlink="http://www.w3.org/1999/xlink" x="0px" y="0px"
	viewBox="0 0 705.1 1097" style="enable-background:new 0 0 705.1 1097;" xml:space="preserve">
<style type="text/css">
	.st0{fill:none;}
</style>
<title>handComputer</title>
<path class="st0" d="M272,0c0,0,0,67,32,97c56,54-185,166-201,127s42-81,58-75s20,61-39,122s-5,180,34,189s26,70,55,62s22-20,58-12
	c0,0,30,19,42,8h49v-19.3c0,0-1-3.7-4-3.7h-40c0,0-2,1-2,7v13h42v-28c0,0,0-2-12-4c-8.6-1.3-17.3-1.9-26-2c-1.4,1.7-2.1,3.8-2,6v5
	l35-1l11-15c0,0,15-26,15-29c0,0,3-39,2-40s-7-2-11,6v22c0,0,0,2-1,2s-3-14-1-22s6-25,6-25s2-8-3-10s-8,9-8,9l-10,29v-21
	c0,0,5-19,4-21s-1-7-5-6s-6,9-8,18s-3,12-3,12v13c-0.5,0.5-1.2,0.9-2,1c-1,0-1-3-1-3v-15c0,0,3-13,2-16s-4-5-7-1s-4,17-4,17l-1,27
	l-2-13c0,0,0-13-1-16s-2-3-5-3s-3,13-3,13l2,27c0,0,6,39,4,44s3-19,1-28s-12-29-12-29l-18-81c0,0,169-47,169-49s-9-69-23-78
	c0,0-160,37-184,52c0,0,10,42,35,71c0,0,158-44,166-49c0,0-17-64-20-65s-172,44-173,48c0,0,24,58,31,59c0,0,154-44,158-43s9,1,14,16
	c0,0,27,101,28,110l-35,17c0,0-12-4-29,1s-47,13-47,13s62-9,65-13s-11-10-11-10l-10-9c0,0-12-20-17-23s-7-9,2-8s19,17,19,17
	s-11-20-17-24c0,0-15-15-8-20c0,0,4-2,12,8l18,16c0,0,3-1-5-11l-17-20c0,0-6-9,3-9c0,0,4-1,15,14l17,18c0,0-4-11-16-24l-6-8
	c0,0-2-7,7-4c0,0,14,10,24,33c0,0,3,1,1-4c0,0-9-17-10-18s-2-7,2-6s11,8,16,21l4,8c0,0,0-8-1-12s-10-40-13-43s-2-8-18-2
	c0,0-124,32-130,37c0,0-5,0,0,16c0,0,6,26,7,28s-2-41-2-41s0-3,8-4c0,0,126-36,131-32s7,14,7,14s12,39,12,42s14,34,14,34v7
	c0,0-28,15-31,19c0,0-4,3,5,14c0,0,4,5,16-4l26-14c0,0,3-1-2-7c0,0-6-6-6-3s11,15,11,15l33,41c0,0,2,3-3,7s-28,28-34,31
	s-11-12-16-19l-23-39c0,0-3-2,11-8l26-12h4l12,21c0,0,6,9-4,6s-32-5-32-5s-9-2-1,15c4.8,10.2,10.5,19.9,17,29c0,0,5,1,3-14
	c0,0,0-9,4,1l4,9c0,0,4,5,9-7s39-55,80-3s65,14,65,7s37-50,36,85s-47.6,131.1-69,124c-51-17-54-94,21-88s-33,120-223,151
	c0,0-202,34-235,15L22,677l204-13L55,785l61-176l73,177c0,0,16,109-72,95c0,0-130-10-106,74c0,0,11.8,48.1,80.3-1.1c0,0,23-19,35-8
	s4,15,4,15s-20,5-1-8s50.6-10.4,53.6-10.1c12.8,1.1,23.8,11.5,15,13c-71.6,12.6-81.8,25.5-81.8,25.5s-20,17,10,19c0,0,25-3,28-2
	s12,5,12,5s5,1,3-3s-7,0-7,0l-2,1c0,0-10,0-16,8s4,20,6,20s11,4,14,8s9,11,11,17s12,16,19,16s33-4,32-19s-8-30-29-44s-25-12-25-12
	s-6,1-3,4s4,4,2,5s-8,0-9-1s-11,0-18,9c0,0-1,4,3,4s12,1,16,3s9,6,11,12s5,18,8,21c0,0,10,17,14,17"/>
</svg>
