<?xml version="1.0" encoding="utf-8"?>
<!-- Generator: Adobe Illustrator 24.0.1, SVG Export Plug-In . SVG Version: 6.00 Build 0)  -->
<svg version="1.1" id="Layer_2" xmlns="http://www.w3.org/2000/svg" xmlns:xlink="http://www.w3.org/1999/xlink" x="0px"
	y="0px" viewBox="0 0 314.4 265.6" style="enable-background:new 0 0 314.4 265.6;" xml:space="preserve">
<style type="text/css"></style><title>핸드폰 패스</title>
<path class="path3" d="M75.5,222.1l97-39.3c0,0,3.6-1.5,2-6.1S115.3,27,115.3,27s-0.9-3.6-6.3-1.2S17.7,63,17.7,63s-3.7,0.5-2,5.7
	s66.7,170.2,66.7,170.2s2,7.2,13.5,2.4s87-35.1,87-35.1s8.9-4.1,4.4-16.7S116.8,9.1,116.8,9.1s-6.1-9.5-15.7-5.8S79,12.8,79,12.8
	L77,26.1c0,0-0.7,3.1-4.8,4.8s-24.2,9.5-24.2,9.5s-2.7,1.4-4.4-2.4s26.6-13.6,26.6-13.6s2.4-0.3,3.1,1s1.7-9.5,1.7-9.5s0-2.4-5.1,0
	S9.3,40.4,9.3,40.4s-8.9,5.1-6.1,15.7S77,244,77,244s31,45.6,111.5,0c51.7-34.5,125.9-34.2,125.9-34.2"/>
</svg>
