<?xml version="1.0" encoding="utf-8"?>
<!-- Generator: Adobe Illustrator 24.0.1, SVG Export Plug-In . SVG Version: 6.00 Build 0)  -->
<svg version="1.1" id="레이어_4" xmlns="http://www.w3.org/2000/svg" xmlns:xlink="http://www.w3.org/1999/xlink" x="0px" y="0px" viewBox="0 0 248.6 148.7" style="enable-background:new 0 0 248.6 148.7;" xml:space="preserve">
<title>접시와 커트러리인 패스</title>
<path class="st0" d="M245.9,97.3c0,0-17.1,7.2-18.5-1s12.3-16.2,11.6-20s-7.7-4.5-11.7-2.4s-17.4,7.9-18,15.6s3.6,37.2,2,47.5c-0.8,4.8-0.5,4.8-6.6,5.1c-5.6,0.2-7.1-4.6-6.6-10.7s4.6-52.6,3.6-57.2s-7.6-6.6-7.6-13.8s3.1-53.3,9.3-57.4s6.6-0.5,6.1,15.3s1.4,48.7,1.4,48.7s-8.6,23.2-26.5,34.4c-17.9,11.2-30.1,14.8-55.7,10.7s-53.1-17.4-55.1-9.7c-2,7.7,6.6,20.9,22,24.5c15.4,3.6,37.3,7.2,55.1-10.2s24.9-36,17.8-57.4S139,19.6,118,19.6S73.5,31.2,70,44.9S69,67.6,81.3,67.6S95,53.3,83.8,50.8s-22.5-1.2-29.7,8.5S40.3,84.8,46,100.6s15.9,37.5,46.5,44.1s64.9,2,85.3-31.7s11.8-78.6-26.6-99.1s-77.6-4.1-97,20.4s-19.5,57.5-17.9,67.2s3.1,33.7-2,38.8S23,138.9,23,131.2s6.1-62.3,3.1-68.9s-7-8-6.5-18.7S20.8,11,20.8,11s1.7-2,2,1.4s0,25.5,0,25.5s2.7,2.7,3.1-0.3s0.3-28.3,0.3-28.3s2.4-2,2.4,1v26.2c0,0,3.1,4.8,3.4-0.7s0-26.9,0-26.9s2.4-2.4,2.4,3.1s1,25.9,1,25.9s2.4,2.7,2.4-2V11c0,0,2.4-2.4,2.4,1s0.4,37.1,0.4,37.1s-0.1,9.2-21,8.2c0,0-18.9,0.6-18,23.8"/>
</svg>
