<?xml version="1.0" encoding="utf-8"?>
<!-- Generator: Adobe Illustrator 24.0.1, SVG Export Plug-In . SVG Version: 6.00 Build 0)  -->
<svg version="1.1" id="레이어_3" xmlns="http://www.w3.org/2000/svg" xmlns:xlink="http://www.w3.org/1999/xlink" x="0px" y="0px" viewBox="0 0 648.4 457.7" style="enable-background:new 0 0 648.4 457.7;" xml:space="preserve">
<style type="text/css"></style>
<title>커트러리 패스와 블로그와 관련된 패스 이미지</title>
<path class="st0" d="M260.4,127.1c0,0-19.7,8.2-21.1,0s12.3-16.2,11.6-20s-7.7-4.5-11.7-2.4s-17.4,7.9-18,15.6s4.1,42.9,2,47.5s-1,5.1-6.6,5.1s-7.1-4.6-6.6-10.7s4.6-52.6,3.6-57.2s-7.6-6.7-7.6-13.8s3.6-54.6,9.7-58.7s6.6-0.5,6.1,15.3s1,50,1,50s-8.7,24.5-26.5,35.7c-17.9,11.2-30.1,14.8-55.7,10.7s-53.1-17.4-55.2-9.7s6.6,20.9,22,24.5s37.3,7.1,55.2-10.2s25-37.3,17.9-58.7s-29.6-38.3-50.6-38.3s-44.4,10.2-48,24s-1,24,11.2,24s13.8-14.3,2.6-16.9S73.2,80.4,66,90.1s-13.8,25.5-8.2,41.4c5.6,15.8,15.8,38.8,46.5,45.5s64.9,2,85.3-31.7s11.7-78.6-26.6-99.1s-77.6-4.1-97,20.4s-19.4,56.2-17.9,65.9s3.1,33.7-2,38.8s-11.2-1.5-11.2-9.2s6.1-62.3,3.1-68.9s-7-8-6.5-18.7s1.2-32.6,1.2-32.6s1.7-2,2,1.4s0,25.5,0,25.5s2.7,2.7,3.1-0.3s0.3-28.3,0.3-28.3s2.4-2,2.4,1v26.2c0,0,3.1,4.8,3.4-0.7s0-26.9,0-26.9s2.4-2.4,2.4,3.1s1,25.9,1,25.9s2.4,2.7,2.4-2V41.8c0,0,2.4-2.4,2.4,1s0.3,37.1,0.3,37.1s-0.3,13.5-21,8.2c0,0-48,67.1-14.1,82.6c0,0,68.2,10.3,11.2,48c-54.4,34.8-1.9,120.8,48.8,64.1c110.3-123.3,646.2-59.5,445.5-30.4c0,0-115.4,15.3-99.6,49.4c0,0,7.9-4.1,11-0.8c0,0,8.6,9.6,7.1,11.1c0,0-2.5,1.2-6.1-4.4s-4.6-6.6-7.7-5.1s-34,17.1-33.7,19.9c0,0,4.6,6.9,5.6,8.2s0.8,5.4-2,6.4s-5.4-1.5-2.6-4.3s7.9,3.1,9.2,6.6c1.3,3.6,1.3,3.8,5.6,1.8s32.4-17.1,32.9-21.5c0,0,1,0.8-1-3.1s-11.5-14-10.2-16.3s5.4-3.8,8.2-1.5s13.5,14.3,12.3,19.7c-0.6,1.8-1.9,3.2-3.6,4.1c-3.1,1.8-43.9,25.8-43.9,25.8s-4.3,3.1-8.7-3.3s-11.2-14.5-11-19.1s50.3-30.6,50.3-30.6s5.4-1.3,10.2,4.1s3.8,12.8,8.9,16.1s10-1.3,16.8-1.3s26,1.8,28.6,7.4s3.6,19.9,9.5,25c5.9,5.1,21.7,10.5,31.7,0s9.2-11.7,9.2-11.7s0.8-1.8-6.1,1.5c-5.8,2.8-12.7,2.6-18.4-0.5c-4.3-2.5-11.5-8.9-6.9-19.1c0,0,5.9-10.5,15.6-7.4s10.4,15.4,10.4,16.9c0.3,2.1,0.7,4.1,1.3,6.1c0,0,0.3,1,1.3-1s5.6-19.1-4.1-25s-19.7-1.8-23,1.8s-7.4,24,10.5,27.8c0,0,18.4,4.1,23-10.7s-8.4-29.1-27.3-23.8c0,0-3.6,2.5-3.6-2s0.8-9.5,2.6-6.1s-0.5,6.1,2.8,6.6s7.2-0.8,7.4-2s-2.3-10.7-9.7-10s-8.9,5.6-9.7,10.7s1,9.7-2,12.5c-3,2.8-14,10.7-9.7,30.1s0,20.9-0.8,21.7s-3.1,2.6-4.8,0s-21.7-36.8-23.2-38.8s-7.2-0.8-11,1.8s-56.9,32.2-56.9,32.2s-1.3,0.3,0,3.1c0,0,1.5,6.6,6.1,4.8s-2-4.1-5.2-0.4s-2.2,7.4,4.2,6.5s6-3.1,3.7-2.8s-5.1,2-4.8,4.9s4,3.6,7.4,2.7s2.6-2.5,0.3-2s-4.8,4.1-3.3,6.4s6,2.3,8.2,1.1s4.1-3.8,0.4-3.1s-6.1,7-4.1,8.3s7.7,1.5,9.2,0.4s1.3-2.7-2.7-2.2s-4.2,5.4-3.2,6.6c1,1.3,5.6,1.9,8,0s-0.6-3.7-3.6-0.3s-0.4,6.8,0.6,7.2s5.4,0.8,6.9-1.7s-6.6-0.3-4.3,4.5c1.1,2.6,4.1,3.7,6.7,2.6c0.7-0.3,1.4-0.8,1.9-1.4c1-1.8-2.3-2.8-4.6,0.6s-1,6,0.4,6.6s5.7,0,6.4-1.7s-4.8,0.4-4.3,3.6s2.4,5.8,6.4,3.3s-0.3-6-1.9-1.8s-0.1,8,3.3,8.6s6.6-2.3,2.8-3.3s-4.5,5.1-3.4,7.2s6.4,3.3,7.7,0.6s-6.4-1.9-4.8,3.8s8,3.5,9.4,2.2s-1.8-2.2-4,0.5s-1.3,6.9,0.6,7.3c2,0.1,3.9-0.5,5.4-1.8c0.4-0.6-3.4-0.4-4.5,3.1s3.1,6.6,6.1,4.6s1.2-3.1,0.4-2.9s-3.8,2-0.4,6.4s6.3,2.5,10.9,0s45.4-28.2,45.4-28.2c1.1-0.7,1.8-1.8,2.2-3.1c0.4-1.9,1.3-4.2,2.3-5s1.8-8.2-2.7-13.4s-8.4-11.1-7.9-12.4s5.2,0.3,4.9,3.1s-5,4.2-6,0.4s0.8-8.4,2.3-7.4c1.5,1,4.2,5.4,5.1,8.7c0.9,3.3,4.6,13.3,6,14.6s5.5,1.7,5.5,0.9s-1.5-1.8-2.9-1.9c-2.2-0.5-4-2.1-4.7-4.2c-0.8-2.4-2.9-13.1-4.7-15.2s-3.3-4.6-5.4-6.1c-2-1.5-1.9-3.4-1.4-3.3s2,3.6-0.6,3.3l-6.6-0.6l5.6-2.2c0,0-0.4-4.5-1.4-5.7c-0.6-0.8,0.3,3.8,4.3,5l2.3-2.4l-1.5,0.9c0,0,4.3-7.4,5.7-8s4.6-0.4,7.2,2.2s0.9,2.3,7.2,2.2s10.6-0.9,10.6-1.5s-2.8-2.9-6-4.7s-15.6-7.9-15.6-7.9s0-0.6-3.1,1.4s-8.5,5.7-8.5,5.7s-0.6,0.5,0.3,1.8s1.3,1.7-0.4,3.1s-2.4,3.5-3.4,1.3s-1.4-5.2,1.7-5.7s7.1,3.6,10.7,7.5s8.2,8.5,9.2,8.7s1.8-1.1-0.5-3.1s4.8-2,6-2s8.4-0.1,8.3-1.7s-13.8,2.4-15.8,2.2s-3.6-0.3-3.7-1.7s21.2-4.2,21.8-4.3s1.8,2.7,1.4,3.6s-1.7-3.7,0.3-4.2s16.1-3.1,16.9-2.5s0.3,2,0.6,2.5s5.2,0,5.5-0.6s1.5-2.4-1.8-1.8c-1.4,0.2-2.8,0.6-4.2,1c0,0-0.8-1.4-1.3-0.1s1.2,1.9,1.2,2.2s-0.5,1.1-2.2,0.6c0,0-15.1,2.3-16.5,4.3s15.1-3.8,16.6-3.7s2.4-0.3,0.9,1.3s-12,1.7-13.3,2.5s-1.9,2-1.7,5.4s2.3,22.9,3.3,25.4s2.5,6.9-0.4,9.1s-12.9,6.6-15.5,7.3s-7.2,2.4-4.7,6.3s12.5,17.1,11.9,19.8s-2.9,3.4-8.9-5.4s-13.8-28.8-6.4-32.9s22.3-11.6,24.6-11.4s2,6.9,4.1,10.5s12.6,22,19.3,27.1s22.8-2.4,21.6,2.7s-10,4.6-9.4,6.8s8.9,1.9,8.9,1.9"/>
</svg>
